<svg width="21" height="21" viewBox="0 0 21 21" fill="none" xmlns="http://www.w3.org/2000/svg">
  <path d="M18.9333 4.0639C19.8019 5.10623 20.2352 6.32229 20.2352 7.71207C20.2352 12.7491 17.3698 14.2257 14.6771 14.66C15.0245 15.268 15.1114 15.9629 15.1114 16.6578V20.2182C15.1114 20.6525 14.8508 20.9131 14.5033 20.9131C14.4117 20.9144 14.3208 20.8973 14.2359 20.8628C14.151 20.8283 14.0739 20.7772 14.0091 20.7124C13.9443 20.6476 13.8932 20.5705 13.8587 20.4856C13.8243 20.4007 13.8072 20.3098 13.8084 20.2182V16.6578C13.8542 16.2938 13.8153 15.9241 13.6948 15.5776C13.5742 15.2311 13.3753 14.9171 13.1136 14.66L13.5479 13.5308C16.2406 13.1834 19.0201 12.3148 19.0201 7.62521C19.0201 6.49601 18.5858 5.45368 17.8041 4.58507L17.6303 3.89113C17.9607 3.05884 17.991 2.13754 17.7162 1.28529C17.2829 1.3712 16.4143 1.54588 14.9386 2.58821L14.4165 2.67412C12.365 2.1532 10.2159 2.1532 8.16437 2.67412L7.64225 2.58821C6.08066 1.63274 5.21205 1.37215 4.77678 1.37215C4.5162 2.24077 4.5162 3.19529 4.86269 3.97799L4.68992 4.67193C3.82131 5.54054 3.387 6.66974 3.387 7.71207C3.387 12.3148 5.99284 13.2702 8.85831 13.6177L9.20575 14.7469C8.68459 15.268 8.424 15.9629 8.51086 16.6578V20.305C8.51215 20.3967 8.49505 20.4876 8.46059 20.5725C8.42612 20.6574 8.37498 20.7345 8.3102 20.7993C8.24541 20.8641 8.1683 20.9152 8.08341 20.9497C7.99852 20.9841 7.90758 21.0012 7.81597 20.9999C7.72436 21.0012 7.63343 20.9841 7.54854 20.9497C7.46365 20.9152 7.38653 20.8641 7.32175 20.7993C7.25697 20.7345 7.20583 20.6574 7.17136 20.5725C7.1369 20.4876 7.1198 20.3967 7.12108 20.305V18.3082C4.25562 18.9162 3.12642 17.4396 2.25781 16.3113C1.8235 15.7902 1.47606 15.3559 1.04175 15.269C0.955844 15.1821 0.694306 14.8347 0.781167 14.4872C0.868028 14.1398 1.21547 13.8792 1.56387 14.0529C2.43249 14.2267 2.9527 14.9216 3.47291 15.5296C4.25562 16.5719 5.03737 17.5264 7.38167 17.0062V16.6588C7.29576 15.9639 7.46853 15.269 7.81597 14.661C5.21014 14.1398 2.17095 12.6632 2.17095 7.71303C2.17095 6.32325 2.60525 5.10719 3.47387 4.06485C3.21328 2.84975 3.30014 1.54683 3.73445 0.504496L4.16876 0.157051C4.34248 0.0701902 5.55854 -0.190393 8.0756 1.37215C10.1568 0.851057 12.3343 0.851057 14.4155 1.37215C16.8486 -0.278209 18.1515 -0.0185801 18.3252 0.0692357L18.7595 0.416681C19.1938 1.63274 19.2807 2.8488 18.9333 4.0639Z" fill="#221E1F" />
</svg>