<svg width="21" height="21" viewBox="0 0 21 21" fill="none" xmlns="http://www.w3.org/2000/svg">
<path fill-rule="evenodd" clip-rule="evenodd" d="M14.4437 7.19773C13.0448 7.19773 11.7032 7.75345 10.714 8.74264C9.7248 9.73183 9.16908 11.0735 9.16908 12.4724V18.7329H11.831V12.4724C11.831 11.7795 12.1063 11.1149 12.5963 10.6249C13.0863 10.135 13.7508 9.8597 14.4437 9.8597C15.1366 9.8597 15.8012 10.135 16.2912 10.6249C16.7811 11.1149 17.0564 11.7795 17.0564 12.4724V18.7329H19.7184V12.4724C19.7184 11.0735 19.1627 9.73183 18.1735 8.74264C17.1843 7.75345 15.8426 7.19773 14.4437 7.19773ZM14.4437 5.91604C12.7049 5.91604 11.0372 6.6068 9.80769 7.83635C8.57814 9.0659 7.88739 10.7335 7.88739 12.4724V19.3738C7.88739 19.7277 8.1743 20.0146 8.52823 20.0146H12.4719C12.8258 20.0146 13.1127 19.7277 13.1127 19.3738V12.4724C13.1127 12.1194 13.253 11.7808 13.5026 11.5312C13.7522 11.2816 14.0907 11.1414 14.4437 11.1414C14.7967 11.1414 15.1353 11.2816 15.3849 11.5312C15.6345 11.7808 15.7747 12.1194 15.7747 12.4724V19.3738C15.7747 19.7277 16.0616 20.0146 16.4156 20.0146H20.3592C20.7131 20.0146 21.0001 19.7277 21.0001 19.3738V12.4724C21.0001 10.7335 20.3093 9.0659 19.0798 7.83635C17.8502 6.6068 16.1826 5.91604 14.4437 5.91604Z" fill="#221E1F"/>
<path fill-rule="evenodd" clip-rule="evenodd" d="M6.10352e-05 7.5428C6.10352e-05 7.18887 0.286977 6.90196 0.640906 6.90196H4.58457C4.9385 6.90196 5.22541 7.18887 5.22541 7.5428V19.3738C5.22541 19.7277 4.9385 20.0146 4.58457 20.0146H0.640906C0.286977 20.0146 6.10352e-05 19.7277 6.10352e-05 19.3738V7.5428ZM1.28175 8.18365V18.7329H3.94372V8.18365H1.28175Z" fill="#221E1F"/>
<path fill-rule="evenodd" clip-rule="evenodd" d="M2.61274 1.28224C1.87765 1.28224 1.28175 1.87814 1.28175 2.61323C1.28175 3.34831 1.87765 3.94421 2.61274 3.94421C3.34782 3.94421 3.94372 3.34831 3.94372 2.61323C3.94372 1.87814 3.34782 1.28224 2.61274 1.28224ZM6.10352e-05 2.61323C6.10352e-05 1.17028 1.1698 0.000549316 2.61274 0.000549316C4.05568 0.000549316 5.22541 1.17028 5.22541 2.61323C5.22541 4.05617 4.05568 5.2259 2.61274 5.2259C1.1698 5.2259 6.10352e-05 4.05617 6.10352e-05 2.61323Z" fill="#221E1F"/>
</svg>
